<?xml version="1.0" standalone="no"?>
<!DOCTYPE svg PUBLIC "-//W3C//DTD SVG 20010904//EN"
 "http://www.w3.org/TR/2001/REC-SVG-20010904/DTD/svg10.dtd">
<svg version="1.0" xmlns="http://www.w3.org/2000/svg"
 width="18.000000pt" height="18.000000pt" viewBox="0 0 18.000000 18.000000"
 preserveAspectRatio="xMidYMid meet">
<metadata>
Created by potrace 1.16, written by Peter Selinger 2001-2019
</metadata>
<g transform="translate(0.000000,18.000000) scale(0.002830,-0.007692)"
fill="#000000" stroke="none">
<path d="M705 1953 c-63 -14 -149 -48 -195 -77 -75 -47 -223 -215 -261 -295
-122 -258 -48 -668 148 -817 170 -130 438 -87 628 101 123 122 182 236 205
398 9 57 7 84 -11 165 -11 53 -24 126 -29 162 -11 83 -31 139 -69 194 -36 51
-135 121 -194 137 -23 5 -62 17 -87 25 -44 14 -94 16 -135 7z m88 -211 c21 -6
48 -18 59 -29 38 -33 90 -124 120 -212 25 -72 31 -107 35 -212 7 -157 -9 -225
-66 -279 -44 -42 -147 -80 -234 -87 -57 -5 -65 -3 -98 24 -49 37 -92 104 -120
183 -19 54 -23 92 -27 233 -6 227 -1 243 105 340 29 25 123 57 158 53 17 -2
47 -9 68 -14z m285 -697 c-28 -74 -108 -162 -180 -198 -36 -18 -77 -29 -124
-34 -38 -3 -67 -3 -64 0 3 2 43 20 90 38 73 29 96 45 166 112 45 43 92 93 105
112 13 18 25 32 26 31 2 -2 -7 -29 -19 -61z"/>
<path d="M2300 1753 c-18 -14 -44 -51 -58 -82 -22 -47 -27 -73 -30 -160 -2
-57 0 -107 5 -112 25 -25 144 115 169 198 8 25 18 51 22 57 5 6 7 32 4 59 -3
38 -8 47 -23 47 -10 0 -19 5 -19 10 0 19 -39 10 -70 -17z"/>
<path d="M5121 1547 l-43 -45 -101 -7 c-135 -9 -174 -19 -287 -73 -78 -38
-108 -59 -168 -121 -192 -197 -218 -316 -102 -466 49 -64 163 -153 240 -189
132 -62 235 -21 504 196 65 53 121 158 83 158 -7 0 -37 -20 -67 -46 -98 -84
-203 -124 -323 -124 -120 0 -151 17 -265 150 -58 67 -65 85 -52 125 13 41 129
153 220 213 60 40 69 43 112 37 70 -8 137 -41 144 -71 3 -13 2 -59 -3 -102
-11 -86 -9 -98 20 -113 17 -10 27 -4 75 44 52 52 55 57 40 74 -15 16 -15 23 1
83 9 36 24 79 32 95 10 20 14 61 14 125 0 114 -10 122 -74 57z"/>
<path d="M2645 1476 c-48 -49 -50 -60 -65 -255 -10 -125 -1 -328 21 -485 14
-101 18 -104 73 -53 l36 34 16 -44 c9 -23 23 -43 30 -43 21 0 93 69 100 95 3
12 -7 62 -22 111 -23 77 -27 107 -28 223 l-1 135 66 38 c36 21 86 41 110 44
58 8 93 -19 129 -100 54 -121 64 -242 29 -367 -11 -41 -23 -87 -26 -103 -5
-27 -4 -28 21 -22 22 5 26 3 26 -14 0 -34 25 -23 100 43 70 61 71 63 66 102
-4 22 -10 130 -15 240 -12 252 -25 318 -74 373 -17 19 -31 22 -87 22 -102 0
-198 -38 -296 -117 -23 -18 -44 -33 -48 -33 -4 0 -4 29 0 65 7 65 7 65 -18 65
-14 0 -31 -7 -38 -15 -22 -27 -30 -16 -30 45 0 75 -16 79 -75 16z"/>
<path d="M1745 1390 c-28 -11 -79 -42 -113 -70 -34 -27 -64 -50 -67 -50 -3 0
-2 28 2 63 l6 62 -22 -19 c-18 -17 -21 -17 -21 -3 0 22 -14 22 -36 0 -13 -13
-19 -14 -22 -5 -8 24 -40 11 -81 -33 -22 -24 -41 -54 -41 -65 0 -11 -12 -27
-26 -37 -25 -16 -26 -18 -19 -92 4 -42 13 -110 21 -151 8 -41 21 -142 29 -224
15 -159 28 -216 50 -216 7 0 27 11 43 25 17 14 34 25 38 25 5 0 17 -18 26 -40
9 -22 24 -43 34 -47 24 -9 62 15 96 63 23 33 28 46 20 60 -18 34 -42 138 -40
174 1 19 -10 71 -24 115 -14 44 -28 106 -32 137 l-7 56 45 27 c53 31 155 51
209 41 20 -4 53 -20 71 -36 19 -17 41 -30 50 -30 9 0 16 -8 16 -18 0 -50 35
-33 61 29 16 35 27 49 42 49 18 0 19 4 13 52 -11 82 -28 105 -109 144 -83 40
-136 43 -212 14z"/>
<path d="M3731 1384 c-66 -33 -192 -158 -240 -237 -47 -79 -63 -130 -68 -217
-9 -139 48 -234 181 -299 64 -31 80 -35 205 -43 196 -12 218 -5 348 116 74 69
85 84 112 156 40 104 40 147 -4 257 -46 114 -91 175 -167 224 -73 47 -105 56
-223 64 -84 5 -94 4 -144 -21z m180 -203 c130 -64 229 -176 229 -257 0 -35 -5
-47 -34 -72 -61 -53 -137 -76 -256 -76 -93 -1 -111 2 -153 24 -131 66 -159
192 -76 337 44 77 60 85 149 80 59 -3 89 -11 141 -36z"/>
<path d="M5625 1384 c-69 -36 -212 -184 -252 -260 -68 -128 -77 -238 -30 -346
29 -64 80 -111 165 -151 56 -26 81 -31 196 -38 198 -13 219 -6 345 109 73 66
82 79 112 155 21 53 32 100 33 134 0 49 -5 64 -66 199 -39 87 -146 180 -234
202 -21 6 -79 13 -129 17 -84 5 -93 3 -140 -21z m177 -201 c80 -38 194 -141
221 -202 35 -79 10 -127 -90 -171 -180 -80 -394 -33 -449 97 -33 77 -2 203 67
275 l38 41 74 -5 c55 -4 91 -13 139 -35z"/>
<path d="M2275 1359 c-62 -51 -73 -67 -84 -122 -8 -43 13 -537 25 -604 5 -26
11 -33 29 -33 13 0 25 -5 27 -12 8 -23 97 23 135 68 l35 44 -17 87 c-13 65
-19 155 -22 341 l-5 254 -24 -5 c-14 -2 -25 1 -28 9 -8 20 -16 17 -71 -27z"/>
</g>
</svg>
